# xmcd
#
# Track frame offsets:
#	150
#	22486
#	35936
#	57196
#	71268
#	78851
#	87924
#	106044
#	132751
#	144198
#	158346
#	188257
#
# Disc length: 2772 seconds
#
# Revision: 0
# Processed by: cddbd v1.5.1PL0 Copyright (c) Steve Scherf et al.
# Submitted via: EasyCDDAExtractor 8.0.2.1
#
DISCID=8c0ad20c
DTITLE=[ingenting] - Ingenting Duger
DYEAR=2004
DGENRE=Indie
TTITLE0=Ingenting Duger
TTITLE1=Här Kommer Solen
TTITLE2=Mamma, Jag Har Gjort Så Mycket Som Du Inte Vill Veta Om
TTITLE3=En Bättre Dag
TTITLE4=021218
TTITLE5=Alla Har Glömt
TTITLE6=Varats Olidliga Lätthet
TTITLE7=Gråt Inte Älskling
TTITLE8=Julia
TTITLE9=Rehabilitering
TTITLE10=#11
TTITLE11=De Svåraste Orden
EXTD=
EXTT0=
EXTT1=
EXTT2=
EXTT3=
EXTT4=
EXTT5=
EXTT6=
EXTT7=
EXTT8=
EXTT9=
EXTT10=
EXTT11=
PLAYORDER=
